<?xml version="1.0" encoding="UTF-8"?>
<svg xmlns="http://www.w3.org/2000/svg" xmlns:xlink="http://www.w3.org/1999/xlink" width="1000px" height="1000px" viewBox="0 0 1000 1000" version="1.1">
<g id="surface1">
<path style=" stroke:none;fill-rule:nonzero;fill:rgb(24.313725%,73.333333%,90.196078%);fill-opacity:1;" d="M 994.394531 497.1875 C 994.394531 771.792969 771.804688 994.382812 497.21875 994.382812 C 222.589844 994.382812 0 771.792969 0 497.1875 C 0 222.589844 222.589844 0 497.21875 0 C 771.804688 0 994.394531 222.589844 994.394531 497.1875 Z M 994.394531 497.1875 "/>
<path style=" stroke:none;fill-rule:nonzero;fill:rgb(100%,100%,100%);fill-opacity:1;" d="M 444.339844 785.652344 C 444.339844 803.441406 429.910156 817.875 412.109375 817.875 C 394.3125 817.875 379.886719 803.441406 379.886719 785.652344 L 379.886719 420.460938 C 379.886719 402.664062 394.3125 388.242188 412.109375 388.242188 C 429.910156 388.242188 444.339844 402.664062 444.339844 420.460938 Z M 444.339844 785.652344 "/>
<path style=" stroke:none;fill-rule:nonzero;fill:rgb(100%,100%,100%);fill-opacity:1;" d="M 677.945312 786.183594 C 677.945312 807.546875 662.804688 824.847656 644.113281 824.847656 C 625.417969 824.847656 610.28125 807.546875 610.28125 786.183594 L 610.28125 347.964844 C 610.28125 326.601562 625.417969 309.300781 644.113281 309.300781 C 662.804688 309.300781 677.945312 326.601562 677.945312 347.964844 Z M 677.945312 786.183594 "/>
<path style=" stroke:none;fill-rule:nonzero;fill:rgb(100%,100%,100%);fill-opacity:1;" d="M 343.914062 346.355469 C 343.914062 354.054688 337.660156 360.3125 329.957031 360.3125 C 322.242188 360.3125 315.988281 354.054688 315.988281 346.355469 L 315.988281 208.875 C 315.988281 201.160156 322.242188 194.902344 329.957031 194.902344 C 337.660156 194.902344 343.914062 201.160156 343.914062 208.875 Z M 343.914062 346.355469 "/>
<path style=" stroke:none;fill-rule:nonzero;fill:rgb(100%,100%,100%);fill-opacity:1;" d="M 397.621094 346.355469 C 397.621094 354.054688 391.363281 360.3125 383.664062 360.3125 C 375.949219 360.3125 369.691406 354.054688 369.691406 346.355469 L 369.691406 208.875 C 369.691406 201.160156 375.949219 194.902344 383.664062 194.902344 C 391.363281 194.902344 397.621094 201.160156 397.621094 208.875 Z M 397.621094 346.355469 "/>
<path style=" stroke:none;fill-rule:nonzero;fill:rgb(100%,100%,100%);fill-opacity:1;" d="M 451.328125 346.355469 C 451.328125 354.054688 445.082031 360.3125 437.378906 360.3125 C 429.664062 360.3125 423.398438 354.054688 423.398438 346.355469 L 423.398438 208.875 C 423.398438 201.160156 429.664062 194.902344 437.378906 194.902344 C 445.082031 194.902344 451.328125 201.160156 451.328125 208.875 Z M 451.328125 346.355469 "/>
<path style=" stroke:none;fill-rule:nonzero;fill:rgb(100%,100%,100%);fill-opacity:1;" d="M 505.03125 346.355469 C 505.03125 354.054688 498.785156 360.3125 491.085938 360.3125 C 483.359375 360.3125 477.113281 354.054688 477.113281 346.355469 L 477.113281 208.875 C 477.113281 201.160156 483.359375 194.902344 491.085938 194.902344 C 498.785156 194.902344 505.03125 201.160156 505.03125 208.875 Z M 505.03125 346.355469 "/>
<path style=" stroke:none;fill-rule:nonzero;fill:rgb(100%,100%,100%);fill-opacity:1;" d="M 315.988281 343.660156 C 315.988281 343.660156 320.554688 429.597656 379.765625 440.601562 L 444.210938 440.601562 C 444.210938 440.601562 499.667969 434.960938 505.03125 347.964844 L 505.03125 336.6875 L 477.09375 336.6875 C 477.09375 336.6875 467.835938 357.222656 450.917969 336.6875 L 423.121094 336.6875 C 423.121094 336.6875 412.648438 356.417969 397.34375 336.6875 L 369.550781 336.6875 C 369.550781 336.6875 358.679688 355.613281 343.78125 336.6875 Z M 315.988281 343.660156 "/>
<path style=" stroke:none;fill-rule:nonzero;fill:rgb(100%,100%,100%);fill-opacity:1;" d="M 742.121094 290.761719 C 742.121094 343.265625 699.570312 385.824219 647.070312 385.824219 C 594.566406 385.824219 552.015625 343.265625 552.015625 290.761719 C 552.015625 238.257812 594.566406 195.710938 647.070312 195.710938 C 699.570312 195.710938 742.121094 238.257812 742.121094 290.761719 Z M 742.121094 290.761719 "/>
</g>
</svg>
